#!OML:ASF H:\Terrain\Patient Classification 1\Animal2\Wednesday\Animal2.ASF
:FULLY-SPECIFIED
:DEGREES
3536
root 7.38827 17.9032 1.65855 -175.483 -21.976 -540.502
lowerback 2.3005 -1.36782 3.89787
upperback -3.63463 -1.68927 2.43846
thorax -5.09192 -1.00112 0.463658
lowerneck 2.62858 6.66526 18.5601
upperneck 6.08757 9.86 -16.6119
head 3.11824 4.97081 -7.90802
rclavicle 1.06847e-014 -2.06736e-014
rhumerus -27.7217 10.0476 -90.4482
rradius 30.7614
rwrist 12.0757
rhand -13.5699 3.73419
rfingers 7.12502
rthumb 12.5438 -25.8693
lclavicle 1.06847e-014 -2.06736e-014
lhumerus -64.3153 -30.9732 103.773
lradius 42.3905
lwrist 54.6383
lhand -32.5009 53.842
lfingers 7.12502
lthumb -5.73233 83.7444
rfemur -8.66091 -10.7302 22.6995
rtibia 24.3641
rfoot -23.8646 -17.8634
rtoes 17.5015
lfemur -9.66925 5.20223 -21.1459
ltibia 23.9949
lfoot -18.8508 11.446
ltoes -13.2627
3537
root 7.37421 17.902 1.65418 -175.378 -21.761 -540.399
lowerback 2.18962 -1.36505 3.90785
upperback -3.65417 -1.69417 2.55787
thorax -5.04587 -1.00479 0.57949
lowerneck 2.41677 6.67719 18.335
upperneck 6.35711 9.85247 -16.571
head 3.21774 4.94949 -7.84937
rclavicle 8.3738e-015 -2.94201e-014
rhumerus -27.6923 10.2567 -90.4043
rradius 30.6582
rwrist 11.9922
rhand -13.6716 3.88719
rfingers 7.12502
rthumb 12.4457 -25.7223
lclavicle 8.3738e-015 -2.94201e-014
lhumerus -64.1992 -30.6498 103.805
lradius 42.3055
lwrist 54.589
lhand -32.4687 53.6224
lfingers 7.12502
lthumb -5.70129 83.5257
rfemur -8.81062 -10.7031 22.743
rtibia 24.3146
rfoot -23.9836 -17.8842
rtoes 16.9938
lfemur -9.76959 5.30595 -21.0987
ltibia 24.0089
lfoot -19.2782 11.0432
ltoes -11.527
3538
root 7.36563 17.9018 1.65031 -175.419 -21.6051 -540.177
lowerback 2.27756 -1.35971 4.05153
upperback -3.71143 -1.67661 2.58575
thorax -5.15983 -1.00485 0.531911
lowerneck 2.4076 6.63281 18.5271
upperneck 6.52677 9.80541 -16.6252
head 3.27302 4.92793 -7.90247
rclavicle 2.81777e-014 3.57812e-014
rhumerus -27.875 10.0297 -90.488
rradius 30.6475
rwrist 12.1542
rhand -13.6555 3.98547
rfingers 7.12502
rthumb 12.4613 -25.623
lclavicle 2.81777e-014 3.57812e-014
lhumerus -64.2595 -30.5565 103.826
lradius 42.282
lwrist 54.4829
lhand -32.3715 53.566
lfingers 7.12502
lthumb -5.60745 83.4718
rfemur -8.84317 -10.4738 22.9389
rtibia 24.248
rfoot -23.951 -17.9558
rtoes 17.0097
lfemur -9.7685 5.29076 -20.9008
ltibia 24.0375
lfoot -19.6281 10.8957
ltoes -10.7439
3539
root 7.35754 17.9037 1.64481 -175.477 -21.3367 -540.106
lowerback 2.37417 -1.30852 4.04231
upperback -3.68833 -1.60157 2.50959
thorax -5.19097 -0.96671 0.454959
lowerneck 2.46911 6.56656 18.9562
upperneck 6.4999 9.74204 -16.8423
head 3.27566 4.90656 -8.05378
rclavicle -3.04141e-014 -4.53229e-014
rhumerus -27.9934 9.90075 -90.6505
rradius 30.6051
rwrist 12.0728
rhand -13.596 3.64231
rfingers 7.12502
rthumb 12.5186 -25.9627
lclavicle -3.04141e-014 -4.53229e-014
lhumerus -64.3084 -30.6802 103.835
lradius 42.2324
lwrist 54.457
lhand -32.4248 53.7115
lfingers 7.12502
lthumb -5.65889 83.6159
rfemur -8.75186 -10.1344 22.9782
rtibia 24.1688
rfoot -24.0426 -17.9158
rtoes 17.7735
lfemur -9.70109 5.3434 -20.8737
ltibia 24.099
lfoot -19.5451 11.3883
ltoes -11.5308
3540
root 7.34544 17.9041 1.63876 -175.465 -20.9845 -540.185
lowerback 2.48556 -1.24758 3.91243
upperback -3.72683 -1.51795 2.42445
thorax -5.29138 -0.921677 0.437151
lowerneck 2.73676 6.50985 19.1841
upperneck 6.35822 9.7063 -16.9768
head 3.2005 4.90317 -8.14992
rclavicle -2.73329e-014 -5.56597e-015
rhumerus -28.1455 9.86913 -90.7738
rradius 30.4856
rwrist 11.9499
rhand -13.5867 3.45866
rfingers 7.12502
rthumb 12.5276 -26.1458
lclavicle -2.73329e-014 -5.56597e-015
lhumerus -64.5527 -30.8444 104.056
lradius 42.2647
lwrist 54.7403
lhand -32.7305 54.1686
lfingers 7.12502
lthumb -5.95404 84.0649
rfemur -8.6969 -9.88337 22.8271
rtibia 24.1778
rfoot -24.1559 -17.7533
rtoes 18.5444
lfemur -9.59956 5.37622 -21.0273
ltibia 24.1036
lfoot -19.622 11.7478
ltoes -11.1366
3541
root 7.33193 17.9034 1.63518 -175.421 -20.756 -540.165
lowerback 2.60233 -1.22068 3.88759
upperback -3.80523 -1.47608 2.39994
thorax -5.43958 -0.903388 0.428008
lowerneck 2.94843 6.47403 19.215
upperneck 6.19934 9.67827 -16.945
head 3.11315 4.90042 -8.15432
rclavicle -6.4605e-016 4.05521e-014
rhumerus -28.2796 9.45424 -90.7045
rradius 30.3638
rwrist 12.3316
rhand -13.7028 3.83322
rfingers 7.12502
rthumb 12.4156 -25.7781
lclavicle -6.4605e-016 4.05521e-014
lhumerus -64.8335 -30.9777 104.352
lradius 42.4996
lwrist 55.0763
lhand -32.9661 54.872
lfingers 7.12502
lthumb -6.18148 84.7619
rfemur -8.78718 -9.7481 22.7836
rtibia 24.2583
rfoot -24.0972 -17.6495
rtoes 18.4217
lfemur -9.57576 5.38995 -21.0734
ltibia 24.08
lfoot -19.898 11.8894
ltoes -10.949
3542
root 7.31695 17.8993 1.63332 -175.403 -20.6404 -540.175
lowerback 2.6725 -1.22918 3.82431
upperback -3.74187 -1.48482 2.39409
thorax -5.41161 -0.902441 0.457997
lowerneck 2.80752 6.46486 19.1818
upperneck 6.08432 9.63907 -16.9571
head 3.09466 4.87605 -8.15014
rclavicle -5.561e-014 -4.05521e-014
rhumerus -28.1716 9.26977 -90.6013
rradius 30.2469
rwrist 12.4953
rhand -13.9098 3.6034
rfingers 7.12502
rthumb 12.2161 -26.0199
lclavicle -5.561e-014 -4.05521e-014
lhumerus -64.9098 -31.1333 104.613
lradius 42.7897
lwrist 55.2276
lhand -32.941 55.203
lfingers 7.12502
lthumb -6.15723 85.0935
rfemur -8.82284 -9.84059 22.7024
rtibia 24.321
rfoot -23.9451 -17.4779
rtoes 17.5152
lfemur -9.55471 5.48214 -21.1372
ltibia 24.1376
lfoot -20.1715 12.0612
ltoes -12.3939
